<?xml version="1.0" encoding="UTF-8" standalone="no"?>
<!DOCTYPE svg PUBLIC "-//W3C//DTD SVG 1.1//EN"
 "http://www.w3.org/Graphics/SVG/1.1/DTD/svg11.dtd">
<!-- Generated by graphviz version 2.40.1 (0)
 -->
<!-- Title: systemd Pages: 1 -->
<svg width="1493pt" height="188pt"
 viewBox="0.00 0.00 1492.98 188.00" xmlns="http://www.w3.org/2000/svg" xmlns:xlink="http://www.w3.org/1999/xlink">
<g id="graph0" class="graph" transform="scale(1 1) rotate(0) translate(4 184)">
<title>systemd</title>
<polygon fill="#ffffff" stroke="transparent" points="-4,4 -4,-184 1488.9839,-184 1488.9839,4 -4,4"/>
<!-- colord.service -->
<g id="node1" class="node">
<title>colord.service</title>
<ellipse fill="none" stroke="#000000" cx="243.9919" cy="-162" rx="85.5853" ry="18"/>
<text text-anchor="middle" x="243.9919" y="-158.3" font-family="Times-Roman" font-size="14.00" fill="#000000">colord.service</text>
</g>
<!-- systemd&#45;tmpfiles&#45;setup.service -->
<g id="node2" class="node">
<title>systemd&#45;tmpfiles&#45;setup.service</title>
<ellipse fill="none" stroke="#000000" cx="741.9919" cy="-90" rx="171.6696" ry="18"/>
<text text-anchor="middle" x="741.9919" y="-86.3" font-family="Times-Roman" font-size="14.00" fill="#000000">systemd&#45;tmpfiles&#45;setup.service</text>
</g>
<!-- colord.service&#45;&gt;systemd&#45;tmpfiles&#45;setup.service -->
<g id="edge1" class="edge">
<title>colord.service&#45;&gt;systemd&#45;tmpfiles&#45;setup.service</title>
<path fill="none" stroke="#00ff00" d="M306.5064,-149.6578C317.3214,-147.6651 328.469,-145.7006 338.9919,-144 432.3843,-128.9066 538.4398,-114.8169 618.3048,-104.8166"/>
<polygon fill="#00ff00" stroke="#00ff00" points="618.9158,-108.2676 628.4054,-103.5561 618.049,-101.3215 618.9158,-108.2676"/>
</g>
<!-- local&#45;fs.target -->
<g id="node3" class="node">
<title>local&#45;fs.target</title>
<ellipse fill="none" stroke="#000000" cx="90.9919" cy="-18" rx="90.9839" ry="18"/>
<text text-anchor="middle" x="90.9919" y="-14.3" font-family="Times-Roman" font-size="14.00" fill="#000000">local&#45;fs.target</text>
</g>
<!-- systemd&#45;tmpfiles&#45;setup.service&#45;&gt;local&#45;fs.target -->
<g id="edge2" class="edge">
<title>systemd&#45;tmpfiles&#45;setup.service&#45;&gt;local&#45;fs.target</title>
<path fill="none" stroke="#00ff00" d="M602.6435,-79.46C491.0289,-70.2678 330.5872,-55.3721 190.9919,-36 183.0419,-34.8967 174.7588,-33.6171 166.5124,-32.2585"/>
<polygon fill="#00ff00" stroke="#00ff00" points="166.9394,-28.7811 156.4964,-30.5688 165.7748,-35.6836 166.9394,-28.7811"/>
</g>
<!-- systemd&#45;journal&#45;flush.service -->
<g id="node4" class="node">
<title>systemd&#45;journal&#45;flush.service</title>
<ellipse fill="none" stroke="#000000" cx="365.9919" cy="-18" rx="166.2706" ry="18"/>
<text text-anchor="middle" x="365.9919" y="-14.3" font-family="Times-Roman" font-size="14.00" fill="#000000">systemd&#45;journal&#45;flush.service</text>
</g>
<!-- systemd&#45;tmpfiles&#45;setup.service&#45;&gt;systemd&#45;journal&#45;flush.service -->
<g id="edge3" class="edge">
<title>systemd&#45;tmpfiles&#45;setup.service&#45;&gt;systemd&#45;journal&#45;flush.service</title>
<path fill="none" stroke="#00ff00" d="M659.4771,-74.1993C599.9899,-62.8081 519.6691,-47.4275 458.0931,-35.6364"/>
<polygon fill="#00ff00" stroke="#00ff00" points="458.4703,-32.1451 447.9904,-33.7018 457.1537,-39.0202 458.4703,-32.1451"/>
</g>
<!-- system.slice -->
<g id="node5" class="node">
<title>system.slice</title>
<ellipse fill="none" stroke="#000000" cx="625.9919" cy="-18" rx="75.2868" ry="18"/>
<text text-anchor="middle" x="625.9919" y="-14.3" font-family="Times-Roman" font-size="14.00" fill="#000000">system.slice</text>
</g>
<!-- systemd&#45;tmpfiles&#45;setup.service&#45;&gt;system.slice -->
<g id="edge4" class="edge">
<title>systemd&#45;tmpfiles&#45;setup.service&#45;&gt;system.slice</title>
<path fill="none" stroke="#00ff00" d="M707.402,-72.2022C691.3167,-62.8033 672.4108,-51.1579 656.8181,-41.0732"/>
<polygon fill="#00ff00" stroke="#00ff00" points="658.3503,-37.893 648.0665,-35.3446 654.5165,-43.7498 658.3503,-37.893"/>
</g>
<!-- systemd&#45;tmpfiles&#45;setup.service&#45;&gt;system.slice -->
<g id="edge7" class="edge">
<title>systemd&#45;tmpfiles&#45;setup.service&#45;&gt;system.slice</title>
<path fill="none" stroke="#000000" d="M718.9536,-72.0171C704.1494,-62.2275 684.6256,-50.0431 667.2481,-39.7253"/>
<polygon fill="#000000" stroke="#000000" points="668.7879,-36.5706 658.3929,-34.5225 665.2418,-42.606 668.7879,-36.5706"/>
</g>
<!-- systemd&#45;sysusers.service -->
<g id="node6" class="node">
<title>systemd&#45;sysusers.service</title>
<ellipse fill="none" stroke="#000000" cx="858.9919" cy="-18" rx="139.9756" ry="18"/>
<text text-anchor="middle" x="858.9919" y="-14.3" font-family="Times-Roman" font-size="14.00" fill="#000000">systemd&#45;sysusers.service</text>
</g>
<!-- systemd&#45;tmpfiles&#45;setup.service&#45;&gt;systemd&#45;sysusers.service -->
<g id="edge5" class="edge">
<title>systemd&#45;tmpfiles&#45;setup.service&#45;&gt;systemd&#45;sysusers.service</title>
<path fill="none" stroke="#00ff00" d="M770.9133,-72.2022C786.101,-62.856 804.8982,-51.2884 821.2221,-41.243"/>
<polygon fill="#00ff00" stroke="#00ff00" points="823.3155,-44.0644 829.9978,-35.8425 819.6468,-38.1028 823.3155,-44.0644"/>
</g>
<!-- systemd&#45;journald.socket -->
<g id="node7" class="node">
<title>systemd&#45;journald.socket</title>
<ellipse fill="none" stroke="#000000" cx="1150.9919" cy="-18" rx="133.7763" ry="18"/>
<text text-anchor="middle" x="1150.9919" y="-14.3" font-family="Times-Roman" font-size="14.00" fill="#000000">systemd&#45;journald.socket</text>
</g>
<!-- systemd&#45;tmpfiles&#45;setup.service&#45;&gt;systemd&#45;journald.socket -->
<g id="edge6" class="edge">
<title>systemd&#45;tmpfiles&#45;setup.service&#45;&gt;systemd&#45;journald.socket</title>
<path fill="none" stroke="#00ff00" d="M829.9839,-74.51C897.6752,-62.5937 990.9241,-46.1782 1059.4807,-34.1096"/>
<polygon fill="#00ff00" stroke="#00ff00" points="1060.1687,-37.5423 1069.4104,-32.3615 1058.9551,-30.6483 1060.1687,-37.5423"/>
</g>
<!-- shutdown.target -->
<g id="node8" class="node">
<title>shutdown.target</title>
<ellipse fill="none" stroke="#000000" cx="1393.9919" cy="-18" rx="90.9839" ry="18"/>
<text text-anchor="middle" x="1393.9919" y="-14.3" font-family="Times-Roman" font-size="14.00" fill="#000000">shutdown.target</text>
</g>
<!-- systemd&#45;tmpfiles&#45;setup.service&#45;&gt;shutdown.target -->
<g id="edge8" class="edge">
<title>systemd&#45;tmpfiles&#45;setup.service&#45;&gt;shutdown.target</title>
<path fill="none" stroke="#ff0000" d="M878.8192,-79.0932C988.792,-69.8799 1147.0515,-55.13 1284.9919,-36 1294.5583,-34.6733 1304.6068,-33.0908 1314.5816,-31.4225"/>
<polygon fill="#ff0000" stroke="#ff0000" points="1315.2405,-34.8608 1324.5112,-29.732 1314.0656,-27.9601 1315.2405,-34.8608"/>
</g>
<!-- shutdown.target&#45;&gt;systemd&#45;tmpfiles&#45;setup.service -->
<g id="edge9" class="edge">
<title>shutdown.target&#45;&gt;systemd&#45;tmpfiles&#45;setup.service</title>
<path fill="none" stroke="#00ff00" d="M1332.808,-31.3539C1322.8822,-33.0474 1312.6894,-34.6551 1302.9919,-36 1165.2737,-55.0992 1007.3017,-69.8324 894.121,-79.0487"/>
<polygon fill="#00ff00" stroke="#00ff00" points="893.6825,-75.5726 883.9974,-79.868 894.2472,-82.5498 893.6825,-75.5726"/>
</g>
<!-- systemd&#45;timesyncd.service -->
<g id="node9" class="node">
<title>systemd&#45;timesyncd.service</title>
<ellipse fill="none" stroke="#000000" cx="492.9919" cy="-162" rx="144.8743" ry="18"/>
<text text-anchor="middle" x="492.9919" y="-158.3" font-family="Times-Roman" font-size="14.00" fill="#000000">systemd&#45;timesyncd.service</text>
</g>
<!-- systemd&#45;timesyncd.service&#45;&gt;systemd&#45;tmpfiles&#45;setup.service -->
<g id="edge10" class="edge">
<title>systemd&#45;timesyncd.service&#45;&gt;systemd&#45;tmpfiles&#45;setup.service</title>
<path fill="none" stroke="#00ff00" d="M550.4302,-145.3913C587.1061,-134.7863 634.8489,-120.9811 673.4963,-109.806"/>
<polygon fill="#00ff00" stroke="#00ff00" points="674.4794,-113.1652 683.1136,-107.025 672.5349,-106.4406 674.4794,-113.1652"/>
</g>
<!-- sysinit.target -->
<g id="node10" class="node">
<title>sysinit.target</title>
<ellipse fill="none" stroke="#000000" cx="741.9919" cy="-162" rx="85.5853" ry="18"/>
<text text-anchor="middle" x="741.9919" y="-158.3" font-family="Times-Roman" font-size="14.00" fill="#000000">sysinit.target</text>
</g>
<!-- sysinit.target&#45;&gt;systemd&#45;tmpfiles&#45;setup.service -->
<g id="edge11" class="edge">
<title>sysinit.target&#45;&gt;systemd&#45;tmpfiles&#45;setup.service</title>
<path fill="none" stroke="#a8a8a8" d="M741.9919,-143.8314C741.9919,-136.131 741.9919,-126.9743 741.9919,-118.4166"/>
<polygon fill="#a8a8a8" stroke="#a8a8a8" points="745.492,-118.4132 741.9919,-108.4133 738.492,-118.4133 745.492,-118.4132"/>
</g>
<!-- rtkit&#45;daemon.service -->
<g id="node11" class="node">
<title>rtkit&#45;daemon.service</title>
<ellipse fill="none" stroke="#000000" cx="963.9919" cy="-162" rx="118.0794" ry="18"/>
<text text-anchor="middle" x="963.9919" y="-158.3" font-family="Times-Roman" font-size="14.00" fill="#000000">rtkit&#45;daemon.service</text>
</g>
<!-- rtkit&#45;daemon.service&#45;&gt;systemd&#45;tmpfiles&#45;setup.service -->
<g id="edge12" class="edge">
<title>rtkit&#45;daemon.service&#45;&gt;systemd&#45;tmpfiles&#45;setup.service</title>
<path fill="none" stroke="#00ff00" d="M913.6167,-145.6621C881.2258,-135.1569 838.8998,-121.4296 804.3861,-110.236"/>
<polygon fill="#00ff00" stroke="#00ff00" points="805.4654,-106.9066 794.8734,-107.1507 803.3058,-113.5651 805.4654,-106.9066"/>
</g>
<!-- upower.service -->
<g id="node12" class="node">
<title>upower.service</title>
<ellipse fill="none" stroke="#000000" cx="1185.9919" cy="-162" rx="85.5853" ry="18"/>
<text text-anchor="middle" x="1185.9919" y="-158.3" font-family="Times-Roman" font-size="14.00" fill="#000000">upower.service</text>
</g>
<!-- upower.service&#45;&gt;systemd&#45;tmpfiles&#45;setup.service -->
<g id="edge13" class="edge">
<title>upower.service&#45;&gt;systemd&#45;tmpfiles&#45;setup.service</title>
<path fill="none" stroke="#00ff00" d="M1122.9362,-149.7438C1112.285,-147.7621 1101.3316,-145.7789 1090.9919,-144 1011.3722,-130.3014 921.2523,-116.398 852.5363,-106.1299"/>
<polygon fill="#00ff00" stroke="#00ff00" points="852.9638,-102.655 842.557,-104.6418 851.9314,-109.5785 852.9638,-102.655"/>
</g>
</g>
</svg>
